<svg width="25" height="24" viewBox="0 0 25 24" fill="none" xmlns="http://www.w3.org/2000/svg">
<path d="M18.4932 5.25H17.2432V4C17.2432 3.035 16.4582 2.25 15.4932 2.25H9.49316C8.52816 2.25 7.74316 3.035 7.74316 4V5.25H6.49316C4.07516 5.25 2.74316 6.582 2.74316 9V9.11902V11.2531V18C2.74316 20.418 4.07516 21.75 6.49316 21.75H18.4932C20.9112 21.75 22.2432 20.418 22.2432 18V11.2531V9.11902V9C22.2432 6.582 20.9112 5.25 18.4932 5.25ZM9.24316 4C9.24316 3.862 9.35516 3.75 9.49316 3.75H15.4932C15.6312 3.75 15.7432 3.862 15.7432 4V5.25H9.24316V4ZM4.24316 9C4.24316 7.423 4.91616 6.75 6.49316 6.75H18.4932C20.0702 6.75 20.7432 7.423 20.7432 9V9.11902V11.2531C20.7432 11.5541 20.5722 11.8169 20.2972 11.9399C19.4322 12.3259 17.9582 12.876 15.8512 13.306C15.7482 13.327 15.6372 13.248 15.5772 13.16C14.8522 12.077 13.7002 11.431 12.4932 11.431C11.2862 11.431 10.1342 12.077 9.40916 13.16C9.35016 13.249 9.24316 13.329 9.13516 13.306C7.02916 12.876 5.55416 12.3259 4.68916 11.9399C4.41416 11.8169 4.24316 11.5541 4.24316 11.2531V9.11902V9ZM18.4932 20.25H6.49316C4.91616 20.25 4.24316 19.577 4.24316 18V13.38C5.19316 13.791 6.71617 14.342 8.83417 14.775C9.52417 14.915 10.2422 14.61 10.6552 13.993C11.1012 13.327 11.7882 12.9301 12.4932 12.9301C13.1982 12.9301 13.8852 13.327 14.3302 13.993C14.6762 14.51 15.2342 14.809 15.8132 14.809C15.9252 14.809 16.0382 14.798 16.1502 14.775C18.2692 14.342 19.7922 13.791 20.7422 13.38V18C20.7432 19.577 20.0702 20.25 18.4932 20.25ZM13.5132 15C13.5132 15.552 13.0652 16 12.5132 16C11.9612 16 11.5082 15.552 11.5082 15C11.5082 14.448 11.9502 14 12.5032 14H12.5132C13.0652 14 13.5132 14.448 13.5132 15Z" fill="#121212"/>
</svg>
