<svg width="25" height="24" viewBox="0 0 25 24" fill="none" xmlns="http://www.w3.org/2000/svg">
<path d="M12.4932 21.749C11.9172 21.749 11.3412 21.53 10.9022 21.091L8.8822 19.072C8.6182 18.81 8.19812 18.781 7.90112 19.003L6.54321 20.022C6.00921 20.422 5.30618 20.485 4.71118 20.187C4.11418 19.889 3.74316 19.289 3.74316 18.622V6C3.74316 3.582 5.07516 2.25 7.49316 2.25H17.4932C19.9112 2.25 21.2432 3.582 21.2432 6V18.621C21.2432 19.288 20.8721 19.888 20.2751 20.186C19.6801 20.484 18.9771 20.421 18.4431 20.021L17.0841 19.001C16.7881 18.779 16.3661 18.808 16.1041 19.071L14.0841 21.09C13.6451 21.53 13.0692 21.749 12.4932 21.749ZM8.34912 17.356C8.93012 17.356 9.50912 17.578 9.94312 18.011L11.9631 20.031C12.2461 20.314 12.7402 20.314 13.0242 20.031L15.0442 18.012C15.8312 17.225 17.0981 17.137 17.9841 17.803L19.3441 18.823C19.4521 18.905 19.5532 18.872 19.6062 18.847C19.6572 18.821 19.7441 18.758 19.7441 18.623V6C19.7441 4.423 19.0711 3.75 17.4941 3.75H7.49414C5.91714 3.75 5.24414 4.423 5.24414 6V18.621C5.24414 18.756 5.3312 18.819 5.3822 18.845C5.4352 18.871 5.53517 18.903 5.64417 18.821L7.00317 17.801C7.40117 17.503 7.87612 17.356 8.34912 17.356ZM17.2432 9C17.2432 8.586 16.9072 8.25 16.4932 8.25H11.4932C11.0792 8.25 10.7432 8.586 10.7432 9C10.7432 9.414 11.0792 9.75 11.4932 9.75H16.4932C16.9072 9.75 17.2432 9.414 17.2432 9ZM17.2432 13C17.2432 12.586 16.9072 12.25 16.4932 12.25H11.4932C11.0792 12.25 10.7432 12.586 10.7432 13C10.7432 13.414 11.0792 13.75 11.4932 13.75H16.4932C16.9072 13.75 17.2432 13.414 17.2432 13ZM8.49316 8.25C8.07916 8.25 7.74316 8.586 7.74316 9C7.74316 9.414 8.07916 9.75 8.49316 9.75C8.90716 9.75 9.24316 9.414 9.24316 9C9.24316 8.586 8.90716 8.25 8.49316 8.25ZM8.49316 12.25C8.07916 12.25 7.74316 12.586 7.74316 13C7.74316 13.414 8.07916 13.75 8.49316 13.75C8.90716 13.75 9.24316 13.414 9.24316 13C9.24316 12.586 8.90716 12.25 8.49316 12.25Z" fill="#121212"/>
</svg>
