<svg width="25" height="24" viewBox="0 0 25 24" fill="none" xmlns="http://www.w3.org/2000/svg">
<path d="M23.2432 12C23.2432 6.072 18.4212 1.25 12.4932 1.25C6.56516 1.25 1.74316 6.072 1.74316 12C1.74316 15.47 3.40216 18.552 5.96216 20.519C5.96616 20.523 5.9722 20.5251 5.9762 20.5291C7.7872 21.9161 10.0421 22.75 12.4941 22.75C14.9461 22.75 17.2012 21.9161 19.0122 20.5291C19.0162 20.5251 19.0221 20.523 19.0261 20.519C21.5841 18.552 23.2432 15.47 23.2432 12ZM3.24316 12C3.24316 6.899 7.39216 2.75 12.4932 2.75C17.5942 2.75 21.7432 6.899 21.7432 12C21.7432 14.523 20.7252 16.8121 19.0812 18.4821C18.6322 16.5811 17.1951 14.8199 14.2031 14.8199H10.7832C7.7912 14.8199 6.35315 16.5811 5.90515 18.4821C4.26115 16.8121 3.24316 14.523 3.24316 12ZM7.2522 19.614C7.3102 18.588 7.7792 16.3199 10.7832 16.3199H14.2031C17.2071 16.3199 17.6761 18.588 17.7341 19.614C16.2431 20.644 14.4382 21.25 12.4932 21.25C10.5482 21.25 8.7432 20.643 7.2522 19.614ZM12.5012 13.75C14.5682 13.75 16.2512 12.068 16.2512 10C16.2512 7.932 14.5682 6.25 12.5012 6.25C10.4342 6.25 8.75122 7.932 8.75122 10C8.75122 12.068 10.4332 13.75 12.5012 13.75ZM12.5012 7.75C13.7412 7.75 14.7512 8.759 14.7512 10C14.7512 11.241 13.7412 12.25 12.5012 12.25C11.2612 12.25 10.2512 11.241 10.2512 10C10.2512 8.759 11.2612 7.75 12.5012 7.75Z" fill="#2A2A2A"/>
</svg>
